<?xml version="1.0" encoding="UTF-8" standalone="no"?>
<!-- Created with Inkscape (http://www.inkscape.org/) -->

<svg
   xmlns:dc="http://purl.org/dc/elements/1.1/"
   xmlns:cc="http://creativecommons.org/ns#"
   xmlns:rdf="http://www.w3.org/1999/02/22-rdf-syntax-ns#"
   xmlns:svg="http://www.w3.org/2000/svg"
   xmlns="http://www.w3.org/2000/svg"
   xmlns:sodipodi="http://sodipodi.sourceforge.net/DTD/sodipodi-0.dtd"
   xmlns:inkscape="http://www.inkscape.org/namespaces/inkscape"
   version="1.1"
   id="svg2"
   width="880"
   height="587"
   viewBox="0 0 880 587"
   sodipodi:docname="jquery-logo.svg"
   inkscape:version="0.92.3 (2405546, 2018-03-11)">
  <metadata
     id="metadata8">
    <rdf:RDF>
      <cc:Work
         rdf:about="">
        <dc:format>image/svg+xml</dc:format>
        <dc:type
           rdf:resource="http://purl.org/dc/dcmitype/StillImage" />
        <dc:title></dc:title>
      </cc:Work>
    </rdf:RDF>
  </metadata>
  <defs
     id="defs6" />
  <sodipodi:namedview
     pagecolor="#ffffff"
     bordercolor="#666666"
     borderopacity="1"
     objecttolerance="10"
     gridtolerance="10"
     guidetolerance="10"
     inkscape:pageopacity="0"
     inkscape:pageshadow="2"
     inkscape:window-width="1600"
     inkscape:window-height="851"
     id="namedview4"
     showgrid="false"
     inkscape:zoom="1.080494"
     inkscape:cx="441.85101"
     inkscape:cy="293.5"
     inkscape:window-x="0"
     inkscape:window-y="25"
     inkscape:window-maximized="1"
     inkscape:current-layer="svg2" />
  <path
     style="fill:#000000"
     d="m 591.37442,379.31093 c -0.78706,-3.13593 -0.0528,-4.45401 2.48121,-4.45401 2.03318,0 2.31243,1.01203 1.31069,4.75 -0.81062,3.02484 -3.00134,2.85384 -3.7919,-0.29599 z m -172.36534,-9.69258 c 0.24489,-7.86843 0.54707,-9.28822 2.03753,-9.57333 1.54515,-0.29556 1.75162,0.58102 1.76387,7.48858 l 0.0139,7.82332 1.95546,-4 c 1.0755,-2.2 2.63419,-5.71836 3.46376,-7.81858 1.30412,-3.30168 1.88358,-3.77546 4.28067,-3.5 2.7687,0.31816 2.77212,0.32827 2.58078,7.64255 -0.23325,8.91673 1.1356,8.53589 4.60093,-1.28007 1.34599,-3.81269 2.89043,-6.5439 3.70042,-6.5439 2.03856,0 1.77343,1.22891 -2.27733,10.55559 -3.54818,8.16949 -3.77607,8.44441 -7,8.44441 h -3.33246 l -0.0313,-6.75 -0.0313,-6.75 -2.38089,4.86008 c -1.30948,2.67305 -2.60328,5.71055 -2.87511,6.75 -0.35182,1.34561 -1.39596,1.88992 -3.62531,1.88992 h -3.13114 z m 28.92122,0.63749 c 1.0675,-4.79084 2.1198,-9.00007 2.33845,-9.35384 0.69978,-1.13227 10.71468,-0.36084 11.48441,0.88462 0.40777,0.65978 0.53189,2.2955 0.27584,3.63495 -0.58394,3.05469 -4.23239,3.42997 -4.23239,0.43535 0,-1.40808 -0.66591,-1.99933 -2.25,-1.99772 -1.94155,0.002 -2.52418,0.99497 -4.25,7.24346 -1.35041,4.88931 -2.53708,7.3423 -3.65361,7.55249 -1.51088,0.28442 -1.48608,-0.44058 0.2873,-8.39931 z m 17.86631,8.00632 c 0,-0.40778 0.50522,-3.64259 1.12271,-7.18847 0.88738,-5.09571 0.85683,-6.61138 -0.14572,-7.23099 -2.21774,-1.37064 -0.25489,-3.98578 2.99163,-3.98578 3.51541,0 3.49974,-0.14282 1.15199,10.5 -1.27599,5.78432 -2.22947,8.08955 -3.44268,8.32332 -0.92286,0.17783 -1.67793,-0.0103 -1.67793,-0.41808 z m 12.05148,-0.84321 c -1.20761,-1.45509 -1.04807,-4.34178 0.6252,-11.31203 0.40062,-1.66882 0.097,-2.25 -1.17526,-2.25 -1.15338,0 -1.51653,-0.51825 -1.10841,-1.58179 0.33385,-0.86998 0.60699,-1.76998 0.60699,-2 0,-0.23001 0.68465,-0.41821 1.52144,-0.41821 0.83679,0 2.03402,-1.125 2.66051,-2.5 0.6265,-1.375 1.75042,-2.5 2.49762,-2.5 0.94976,0 1.16974,0.75223 0.73107,2.5 -0.55245,2.20116 -0.30689,2.5 2.05428,2.5 3.68802,0 3.08959,3.37595 -0.6757,3.81181 -2.78037,0.32185 -3.21898,1.07233 -4.34719,7.43819 -0.6322,3.56714 -0.5337,3.75 2.02,3.75 2.0164,0 2.6021,0.43558 2.3531,1.75 -0.44053,2.3255 -6.023,2.90939 -7.76365,0.81203 z m 14.43817,0.0541 c -4.05443,-2.96467 -0.8686,-13.67642 4.89586,-16.46142 3.87627,-1.87276 9.45244,-0.7111 10.55914,2.19974 0.46983,1.23575 0.62203,3.46154 0.33822,4.9462 -0.4964,2.59667 -0.75884,2.69935 -6.89945,2.69935 -5.71675,0 -6.38342,0.20887 -6.38342,2 0,1.75758 0.66667,2 5.5,2 4.01613,0 5.5,0.37322 5.5,1.38337 0,2.70446 -10.22209,3.63716 -13.51035,1.23272 z m 11.32346,-11.36613 c -0.40341,-2.1166 -4.36597,-2.86598 -6.36815,-1.20432 -2.44582,2.02985 -1.62335,2.95432 2.62836,2.95432 3.33976,0 4.01326,-0.31516 3.73979,-1.75 z m 18.73807,9.08513 c 0.37057,-2.10932 1.29814,-6.90205 2.06129,-10.65051 1.72185,-8.45751 1.71973,-8.68462 -0.0811,-8.68462 -0.89459,0 -1.24363,-0.58629 -0.89301,-1.5 0.35399,-0.92249 1.87232,-1.5 3.94362,-1.5 3.14497,0 3.33046,0.18212 2.80107,2.75 -3.93094,19.0674 -5.00068,22.74526 -6.7115,23.07474 -1.56274,0.30095 -1.70723,-0.14909 -1.12038,-3.48961 z m 11.10381,1.83613 c -3.41201,-3.77023 -0.93387,-12.94145 4.21657,-15.60484 7.40737,-3.8305 14.2222,0.81376 11.52145,7.85179 -0.46591,1.21414 -2.0929,1.58179 -7,1.58179 -5.72634,0 -6.39301,0.20856 -6.39301,2 0,1.75758 0.66667,2 5.5,2 4.01613,0 5.5,0.37322 5.5,1.38337 0,2.99939 -10.76828,3.63515 -13.34501,0.78789 z m 11.15978,-10.92126 c -0.50227,-2.64854 -5.41107,-2.87284 -6.7827,-0.30993 -1.02998,1.92454 -0.8324,2.05993 3.00607,2.05993 3.37263,0 4.04907,-0.31345 3.77663,-1.75 z m 7.9208,12.15223 c -0.32877,-0.32877 -0.35563,-1.22877 -0.0597,-2 0.36958,-0.96312 2.22692,-1.40223 5.9311,-1.40223 4.72634,0 5.39301,-0.24723 5.39301,-2 0,-1.73333 -0.66667,-2 -5,-2 -4.82035,0 -5,-0.10153 -5,-2.82569 0,-5.17365 6.00253,-8.82726 12.4998,-7.60837 5.16564,0.96908 3.75892,2.84964 -2.56878,3.43406 -4.00937,0.3703 -5.49584,0.9334 -5.73042,2.17079 -0.25281,1.33357 0.78502,1.80844 5.14204,2.35282 l 5.45877,0.68202 -0.88692,3.14719 c -1.2991,4.60981 -4.32078,6.64718 -9.85861,6.64718 -2.5974,0 -4.99154,-0.26899 -5.32031,-0.59777 z m 19.76443,-0.40223 c -1.21615,-1.96777 0.69658,-3 5.55902,-3 4.27431,0 4.94098,-0.26985 4.94098,-2 0,-1.70576 -0.66667,-2 -4.53138,-2 -5.12354,0 -6.43542,-1.5827 -4.61805,-5.57138 1.58465,-3.47792 7.05615,-5.8563 11.53818,-5.01547 2.18286,0.40951 3.61125,1.25286 3.61125,2.13216 0,1.09659 -1.35392,1.45469 -5.5,1.45469 -4.74308,0 -5.5,0.26233 -5.5,1.90616 0,1.52904 0.98922,2.04222 5,2.59384 3.2101,0.4415 5,1.17421 5,2.04678 0,2.68184 -2.265,6.25293 -4.65732,7.34295 -3.03392,1.38234 -10.01263,1.45332 -10.84268,0.11027 z m 39.92106,-1.48013 c -2.08651,-3.18443 -0.33307,-9.76171 3.66942,-13.7642 2.58078,-2.58078 3.39482,-2.84947 6.8594,-2.26414 3.92126,0.66249 3.93386,0.65394 5.02916,-3.41369 0.69268,-2.57243 1.67759,-4.07784 2.66791,-4.07784 1.1148,0 1.41974,0.65223 1.05196,2.25 -0.28484,1.2375 -1.49435,6.97872 -2.68778,12.75826 l -2.16988,10.50825 -6.43875,0.17891 c -5.76044,0.16006 -6.60126,-0.0691 -7.98144,-2.17555 z m 11.02769,-2.43694 c 0.31173,-0.50439 0.84945,-2.97939 1.19494,-5.5 0.58203,-4.2464 0.46649,-4.58293 -1.57351,-4.58293 -1.21091,0 -3.05271,0.45547 -4.09289,1.01215 -1.9673,1.05287 -3.66416,7.06745 -2.51739,8.92296 0.80521,1.30286 6.20441,1.41706 6.98885,0.14782 z m 11.45754,2.82336 c -3.73897,-3.73897 -0.83475,-12.34057 5.22461,-15.47398 4.18313,-2.16318 9.57871,-1.16374 11.04077,2.04511 1.58759,3.48439 0.10998,9.39477 -3.16829,12.67304 -3.62018,3.62018 -9.87195,3.98097 -13.09709,0.75583 z m 12.11844,-3.9525 c 0.6023,-1.12541 0.95563,-3.48791 0.78518,-5.25 -0.27288,-2.82103 -0.70599,-3.24181 -3.62523,-3.52202 -4.14945,-0.3983 -5.79666,0.93637 -6.62858,5.37087 -0.8651,4.61139 -0.17946,5.44736 4.46773,5.44736 2.91175,0 4.18451,-0.52078 5.0009,-2.04621 z m 20.13496,-2.67155 c 1.06838,-4.79477 2.15098,-8.92625 2.40579,-9.18105 0.82655,-0.82656 18.88124,-0.69676 20.68452,0.1487 2.05974,0.9657 2.21782,4.08711 0.61195,12.08333 -0.84787,4.22185 -1.57175,5.66678 -2.83893,5.66678 -1.51528,0 -1.60061,-0.66241 -0.78206,-6.07063 1.09175,-7.21324 0.60902,-8.92937 -2.51173,-8.92937 -2.09668,0 -2.4805,0.7352 -3.78138,7.24328 -1.08753,5.44068 -1.88941,7.32658 -3.22214,7.578 -1.56503,0.29525 -1.68745,-0.17573 -1.03799,-3.99328 1.41772,-8.33348 1.09144,-10.29554 -1.7674,-10.62799 -2.3942,-0.27842 -2.66895,0.11705 -3.82118,5.5 -1.88843,8.82236 -2.09684,9.29999 -4.05794,9.29999 -1.7563,0 -1.7519,-0.32366 0.11849,-8.71776 z m 30.36062,6.7402 c -2.10238,-2.3231 -1.67129,-8.61688 0.85422,-12.4713 1.84134,-2.81024 7.73679,-4.991 11.16593,-4.13034 9.59273,2.40762 3.96795,18.5792 -6.4622,18.5792 -2.48404,0 -4.37821,-0.67396 -5.55795,-1.97756 z m 11.27969,-3.22244 c 0.66,-0.66 1.2,-3.135 1.2,-5.5 0,-4.23056 -0.0554,-4.3 -3.42857,-4.3 -4.51227,0 -6.57143,2.21583 -6.57143,7.07143 0,3.8822 0.0448,3.92857 3.8,3.92857 2.09,0 4.34,-0.54 5,-1.2 z m 8.52276,3.80127 c 0.29521,-0.7693 1.08282,-4.2568 1.75024,-7.75 1.7509,-9.16399 1.97564,-9.43695 7.59331,-9.22266 2.65853,0.10142 5.17119,0.22646 5.58369,0.27789 0.4125,0.0514 0.75,1.6685 0.75,3.5935 0,2.83333 -0.38095,3.5 -2,3.5 -1.33333,0 -2,-0.66667 -2,-2 0,-1.44838 -0.66667,-2 -2.41714,-2 -2.07658,0 -2.56178,0.67445 -3.44375,4.78697 -1.55744,7.26209 -2.92162,10.21303 -4.72135,10.21303 -0.98708,0 -1.41969,-0.5526 -1.095,-1.39873 z m 20.91578,0.73263 c -2.55335,-1.02867 -3.32019,-4.12401 -2.16158,-8.72525 1.35788,-5.39263 4.43829,-8.49345 9.20618,-9.26717 4.8756,-0.7912 8.65043,2.75106 7.95815,7.46786 l -0.46829,3.19066 h -6.3865 c -5.71983,0 -6.3865,0.20877 -6.3865,2 0,1.75758 0.66667,2 5.5,2 5.63617,0 6.99478,1.12965 3.56574,2.96482 -1.97772,1.05844 -8.55919,1.28279 -10.8272,0.36908 z m 10.57457,-12.0839 c -0.40341,-2.1166 -4.36597,-2.86598 -6.36815,-1.20432 -2.44582,2.02985 -1.62335,2.95432 2.62836,2.95432 3.33976,0 4.01326,-0.31516 3.73979,-1.75 z m 6.73672,11.83062 c -0.85012,-1.37552 2.28687,-4.08051 3.97911,-3.43114 1.7848,0.68489 1.86021,1.56137 0.27106,3.15052 -1.42755,1.42755 -3.45846,1.56164 -4.25017,0.28062 z M 244.79661,366.41897 c 0,-1.4435 2.25465,-11.80606 4.09307,-18.81205 l 0.98402,-3.75 h 5.8266 c 11.58895,0 14.05231,-4.52423 21.60385,-39.67781 3.05086,-14.20221 6.54724,-29.87219 7.76974,-34.82219 l 2.22272,-9 12.91886,-0.28114 c 7.10538,-0.15462 13.24226,0.0704 13.63753,0.5 0.8123,0.88291 -14.90908,74.06751 -17.56807,81.78114 -4.53468,13.15495 -10.84721,21.07134 -19.02387,23.85741 -6.58741,2.24456 -32.46445,2.40767 -32.46445,0.20464 z M 470.11951,355.256 c -0.62175,-1.62024 1.13594,-3.3557 3.4271,-3.38377 1.58912,-0.0195 1.61865,2.21604 0.05,3.78469 -1.63461,1.63461 -2.74513,1.50657 -3.4771,-0.40092 z m -316.3229,-14.94178 c -26.44219,-7.33128 -47.8502,-29.41791 -53.61066,-55.31011 -2.042231,-9.17942 -1.453151,-20.39638 1.47349,-28.05743 2.01856,-5.28397 8.91482,-16.64545 9.65456,-15.90571 0.20465,0.20465 -0.0423,2.15946 -0.54879,4.34402 -1.38091,5.95609 -1.12583,20.1841 0.48355,26.97193 5.85544,24.69628 27.40146,45.94076 53.31429,52.56814 9.2483,2.36532 25.91306,2.56729 35.00272,0.42422 6.83259,-1.61092 14.75634,-5.29192 20.20058,-9.38424 l 3.46973,-2.60812 -2.45621,3.5 c -6.68655,9.52807 -17.52427,17.61985 -29.10242,21.72877 -6.14814,2.18189 -9.46851,2.6723 -19.88084,2.9364 -8.97312,0.22759 -14.05183,-0.11321 -18,-1.20787 z m 206.82018,-12.55574 c -22.91584,-3.00904 -35.82018,-18.25489 -35.82018,-42.31979 0,-13.80651 5.19941,-34.27474 12.08689,-47.58177 11.21901,-21.67582 29.12091,-33.42877 52.91527,-34.73992 33.09582,-1.82368 54.99784,16.24916 54.99784,45.38244 0,7.81694 -4.4769,25.42046 -10.47237,41.17815 -2.4902,6.5449 -4.52763,12.41271 -4.52763,13.03957 0,0.73611 2.30198,1.13976 6.5,1.13976 5.52477,0 6.49962,0.26256 6.49748,1.75 -0.003,2.42648 -4.93101,20.60077 -5.79419,21.37089 -1.15864,1.03372 -69.16283,1.72876 -76.38311,0.78067 z m 41.91293,-26.15156 c 1.42326,-1.81909 12.20887,-41.46452 12.92463,-47.50794 1.13314,-9.56764 -3.02175,-19.31046 -9.71006,-22.76912 -4.90645,-2.53722 -12.64351,-3.5656 -19.05617,-2.53287 -15.68878,2.5266 -23.94736,11.99962 -29.48184,33.81716 -5.07237,19.99589 -2.21534,33.70199 7.9914,38.33734 3.4467,1.5653 6.66518,1.865 20.22649,1.88347 11.73589,0.016 16.39387,-0.31842 17.10555,-1.22804 z m 173.53659,26.20399 c -5.96729,-1.1891 -13.26909,-4.59195 -16.64618,-7.7576 -1.58206,-1.48302 -3.94017,-4.94639 -5.24023,-7.69639 -6.01268,-12.71851 0.0593,-47.27536 11.27605,-64.1741 4.35714,-6.5643 13.05597,-13.32739 20.93242,-16.27435 8.70091,-3.25543 22.73485,-4.66693 33.22999,-3.3422 13.64239,1.72199 21.4541,6.25802 25.78088,14.9702 2.65329,5.34254 2.52966,26.65509 -0.21359,36.82045 l -1.88904,7 -30.91524,0.26469 c -20.77479,0.17787 -31.35305,0.62804 -32.25,1.37245 -1.65694,1.37513 -1.72463,5.91309 -0.14007,9.3908 2.48845,5.46157 4.98109,5.94211 32.67394,6.29899 l 25.36862,0.32692 -0.64578,4.67308 c -0.35518,2.57019 -1.42106,7.82307 -2.36863,11.67307 l -1.72284,7 -26.5,0.14848 c -14.575,0.0817 -28.40363,-0.23086 -30.7303,-0.69449 z m 44.5525,-63.82257 c 0.79538,-8.31552 -4.4071,-12.57284 -15.3222,-12.53853 -9.45932,0.0297 -16.53465,3.76455 -20.09501,10.60745 -3.07041,5.90123 -3.16177,5.87101 16.84501,5.57222 l 18.25,-0.27256 z m -146.3222,63.19649 c -8.46256,-1.86214 -14.03228,-6.10126 -17.37081,-13.22095 -2.34446,-4.99975 -2.61889,-6.74407 -2.53408,-16.10696 0.079,-8.72082 1.06328,-15.07503 5.80883,-37.5 3.14255,-14.85 5.94257,-27.7875 6.22228,-28.75 0.45068,-1.55084 1.98801,-1.75 13.50856,-1.75 11.91242,0 12.95648,0.1464 12.47988,1.75 -1.87693,6.31521 -11.61466,58.05879 -11.61466,61.71705 0,3.53443 0.61125,5.1855 2.84548,7.68604 2.81222,3.14743 2.9729,3.18955 13.75,3.60427 8.15235,0.31371 11.30431,0.0818 12.48854,-0.91887 1.05538,-0.89179 4.00453,-12.6854 8.83685,-35.33849 3.98906,-18.7 7.48753,-35.0125 7.77439,-36.25 0.50631,-2.18423 0.88381,-2.25 12.91315,-2.25 10.05947,0 12.39159,0.26824 12.39159,1.42531 0,2.33233 -19.0096,91.8779 -20.02416,94.32469 l -0.93296,2.25 -27.27144,-0.116 c -14.99929,-0.0638 -28.17144,-0.31404 -29.27144,-0.55609 z m 176.5,-1.28576 c 0,-1.65892 15.3016,-74.77459 19.10557,-91.29215 l 1.09391,-4.75 32.15026,0.006 c 19.19155,0.003 33.6611,0.42516 35.89861,1.04655 6.07041,1.68584 8.66524,4.66772 10.81816,12.43181 3.23401,11.66285 6.29055,10.51604 -28.02797,10.51604 H 691.8737 l -1.08975,4.04702 c -0.59936,2.22585 -4.13923,18.76335 -7.86637,36.75 l -6.77662,32.70298 -12.67217,0.27988 c -12.13485,0.26801 -12.67218,0.19432 -12.67218,-1.73773 z m 80.79391,1.41842 c -0.3256,-0.32559 0.73775,-5.52554 2.36299,-11.55544 l 2.95498,-10.96345 -6.05594,-21.24542 c -3.33077,-11.68499 -6.05594,-21.79686 -6.05594,-22.47084 0,-0.90873 3.60904,-1.22542 13.96482,-1.22542 15.97318,0 15.01799,-0.54514 17.15252,9.78922 0.70908,3.43305 1.76026,6.09052 2.33595,5.90549 0.57569,-0.18504 10.27171,-13.80455 21.54671,-30.26557 l 20.5,-29.92914 16.25,-0.27477 c 8.9375,-0.15113 16.25,-0.0119 16.25,0.30932 0,0.32125 -14.92583,20.3908 -33.16851,44.59899 l -33.16852,44.0149 -3.14675,11.67578 -3.14674,11.67578 -13.9918,0.27628 c -7.69548,0.15195 -14.25818,0.01 -14.58377,-0.31571 z M 176.42417,299.74666 c -6.84937,-1.60843 -17.89985,-8.17638 -24.21051,-14.38974 -10.80125,-10.63469 -16.71263,-26.35803 -14.54218,-38.67989 0.85433,-4.85009 6.81299,-18.50826 7.67311,-17.58795 0.13768,0.14731 -0.14061,2.71534 -0.61843,5.70674 -1.22187,7.64965 0.47438,18.02091 4.24464,25.95262 3.9369,8.2823 14.79068,19.34007 23.42884,23.86918 16.77471,8.79524 38.45554,7.95594 50.80287,-1.96665 l 4.06935,-3.27022 -2.17188,3.05012 c -5.69614,7.9995 -15.11092,14.47762 -24.80337,17.0667 -5.61096,1.49881 -18.00009,1.62808 -23.87244,0.24909 z m 14.67444,-36.99234 c -6.70134,-2.57634 -14.72216,-9.81964 -17.96914,-16.22723 -3.46397,-6.83583 -4.04176,-14.87035 -1.45049,-20.17017 l 1.95573,-4 0.081,4.71249 c 0.16604,9.66602 5.85013,19.78055 14.43574,25.6876 8.25728,5.68116 22.43982,7.82445 30.42733,4.59823 l 3.71788,-1.50168 -3.5,2.96763 c -7.17394,6.08274 -18.07884,7.63124 -27.698,3.93313 z m 98.51846,-10.41027 c -0.58024,-0.58024 2.76986,-17.16344 4.29027,-21.23713 0.81185,-2.17519 1.27286,-2.25 13.86452,-2.25 h 13.02475 l -0.0908,3.25 c -0.05,1.7875 -1.06247,7.075 -2.25,11.75 l -2.15915,8.5 -13.05566,0.27767 c -7.18062,0.15272 -13.31136,0.022 -13.62388,-0.29054 z"
     id="path12"
     inkscape:connector-curvature="0"
     inkscape:export-filename="/home/franco/WEB/JekyllSites/Javfr.github.io/assets/images/skills/jquery-logo.png"
     inkscape:export-xdpi="96"
     inkscape:export-ydpi="96" />
</svg>
